# xmcd CD database file
#
# Track frame offsets:
#	150
#	31202
#	54955
#	83312
#	102895
#	115380
#	156217
#	185550
#	210690
#	237080
#
# Disc length: 3595 seconds
#
# Revision: 0
# Processed by: cddbd v1.5.2PL0 Copyright (c) Steve Scherf et al.
# Submitted via: CDex 1.50
#
DISCID=740e090a
DTITLE=Nathan Davis - London By Night
DYEAR=1987
DGENRE=Jazz
TTITLE0=Noite Em Leblon
TTITLE1=I Thought About You
TTITLE2=Rio De Janeiro
TTITLE3=London By Night
TTITLE4=Dr Bu
TTITLE5=But Beautiful
TTITLE6=You've Changed
TTITLE7=Shades
TTITLE8=Lament
TTITLE9=If I Feel
EXTD=YEAR: 1987
EXTT0=
EXTT1=
EXTT2=
EXTT3=
EXTT4=
EXTT5=
EXTT6=
EXTT7=
EXTT8=
EXTT9=
PLAYORDER=
